# xmcd
#
# Track frame offsets: 
#        150
#        20373
#        40471
#        59727
#        84687
#        101034
#        120802
#        147255
#        170641
#        192911
#        216303
#
# Disc length: 3153 seconds
#
# Revision: 0
# Processed by: cddbd v1.5.2PL0 Copyright (c) Steve Scherf et al.
# Submitted via: ExactAudioCopy v1.0b3
#
DISCID=a00c4f0b
DTITLE=Mong Thi - Giac Ngu Dau Noi
DYEAR=1998
DGENRE=
TTITLE0=Nguoi Cha bat hanh
TTITLE1=Ngau hung ly ru con
TTITLE2=Hat len tinh Cha
TTITLE3=Mung tuoi Me
TTITLE4=Que huong la dong song nho
TTITLE5=Ba va con
TTITLE6=Giac ngu dau noi
TTITLE7=Khoc Me
TTITLE8=Me la que huong
TTITLE9=On nghia sinh thanh
TTITLE10=Nguoi Cha bat hanh
EXTD=
EXTT0=
EXTT1=
EXTT2=
EXTT3=
EXTT4=
EXTT5=
EXTT6=
EXTT7=
EXTT8=
EXTT9=
EXTT10=
PLAYORDER=
